# xmcd
#
# Track frame offsets:
#   150
#   16791
#   34264
#   50186
#   64190
#   80704
#   98027
#   114023
#   131474
#   149654
#   162491
#   179174
#   193169
#   209528
#
# Disc length: 3691 seconds
#
# Revision: 0
# Processed by: cddbd v1.5.1PL2 Copyright (c) Steve Scherf et al.
# Submitted via: GXTranscoder 2.0.1939
#
DISCID=d30e690e
DTITLE=Mama rock'n'roll - Merguzele
DYEAR=2006
DGENRE=Pop
TTITLE0=Merguzele
TTITLE1=Sirdeles
TTITLE2=Sok, kol gali
TTITLE3=Kiek nedaug
TTITLE4=Mano gitara
TTITLE5=Aistringas tango
TTITLE6=Slapta meile
TTITLE7=Cia cia cia
TTITLE8=Ryte vakare
TTITLE9=Siandien mes dainuosim
TTITLE10=Merguzele (kar)
TTITLE11=Sirdeles (kar)
TTITLE12=Mano gitara (kar)
TTITLE13=Sok, kol gali (vaizdo klipas)
EXTD=
EXTT0=
EXTT1=
EXTT2=
EXTT3=
EXTT4=
EXTT5=
EXTT6=
EXTT7=
EXTT8=
EXTT9=
EXTT10=
EXTT11=
EXTT12=
EXTT13=
PLAYORDER=
